<mxfile host="app.diagrams.net" modified="2023-06-28T18:58:02.273Z" agent="Mozilla/5.0 (Windows NT 10.0; Win64; x64; rv:109.0) Gecko/20100101 Firefox/114.0" etag="Q6Fc-Jj7KsMLGDlSl0Zw" version="21.5.0" type="device">
  <diagram name="Page-1" id="WbYNg_U8eyhFjmeSOh_H">
    <mxGraphModel dx="1235" dy="624" grid="1" gridSize="10" guides="1" tooltips="1" connect="1" arrows="1" fold="1" page="1" pageScale="1" pageWidth="827" pageHeight="1169" math="0" shadow="0">
      <root>
        <mxCell id="0" />
        <mxCell id="1" parent="0" />
        <mxCell id="VtA0d31s0QXTXYx8yhvP-1" value="Authorization Server" style="rounded=1;whiteSpace=wrap;html=1;fillColor=#dae8fc;strokeColor=#000066;fontColor=#000000;" vertex="1" parent="1">
          <mxGeometry x="354" y="30" width="120" height="60" as="geometry" />
        </mxCell>
        <mxCell id="VtA0d31s0QXTXYx8yhvP-2" value="&lt;div&gt;Client Application&lt;/div&gt;" style="rounded=1;whiteSpace=wrap;html=1;fillColor=#f8cecc;strokeColor=#000066;fontColor=#000000;" vertex="1" parent="1">
          <mxGeometry x="354" y="420" width="120" height="60" as="geometry" />
        </mxCell>
        <mxCell id="VtA0d31s0QXTXYx8yhvP-3" value="&lt;div&gt;Resource Server&lt;br&gt;&lt;/div&gt;" style="rounded=1;whiteSpace=wrap;html=1;fillColor=#d5e8d4;strokeColor=#000066;fontColor=#000000;" vertex="1" parent="1">
          <mxGeometry x="600" y="220" width="120" height="60" as="geometry" />
        </mxCell>
        <mxCell id="VtA0d31s0QXTXYx8yhvP-11" style="edgeStyle=orthogonalEdgeStyle;rounded=0;orthogonalLoop=1;jettySize=auto;html=1;exitX=1;exitY=0.5;exitDx=0;exitDy=0;fontColor=#000000;strokeColor=#000066;" edge="1" parent="1" source="VtA0d31s0QXTXYx8yhvP-4">
          <mxGeometry relative="1" as="geometry">
            <mxPoint x="200" y="250" as="targetPoint" />
          </mxGeometry>
        </mxCell>
        <mxCell id="VtA0d31s0QXTXYx8yhvP-4" value="&lt;div&gt;Resource Owner&lt;/div&gt;&lt;div&gt;User Agent&lt;br&gt;&lt;/div&gt;" style="rounded=1;whiteSpace=wrap;html=1;fillColor=#ffe6cc;strokeColor=#000066;fontColor=#000000;" vertex="1" parent="1">
          <mxGeometry x="80" y="220" width="120" height="60" as="geometry" />
        </mxCell>
        <mxCell id="VtA0d31s0QXTXYx8yhvP-5" value="&lt;div&gt;Resource Owner&lt;/div&gt;" style="shape=umlActor;verticalLabelPosition=bottom;verticalAlign=top;html=1;outlineConnect=0;connectable=0;allowArrows=0;resizable=1;fontColor=#000000;strokeColor=#000066;" vertex="1" parent="1">
          <mxGeometry x="125" y="130" width="30" height="60" as="geometry" />
        </mxCell>
        <mxCell id="VtA0d31s0QXTXYx8yhvP-9" value="" style="endArrow=classic;html=1;rounded=0;exitX=1;exitY=1;exitDx=0;exitDy=0;entryX=0;entryY=0.75;entryDx=0;entryDy=0;fontColor=#000000;strokeColor=#000066;" edge="1" parent="1" source="VtA0d31s0QXTXYx8yhvP-4" target="VtA0d31s0QXTXYx8yhvP-2">
          <mxGeometry width="50" height="50" relative="1" as="geometry">
            <mxPoint x="350" y="290" as="sourcePoint" />
            <mxPoint x="400" y="240" as="targetPoint" />
          </mxGeometry>
        </mxCell>
        <mxCell id="VtA0d31s0QXTXYx8yhvP-10" value="&lt;div&gt;1) Initiates access&lt;/div&gt;&lt;div&gt;to resource&lt;/div&gt;" style="text;html=1;align=center;verticalAlign=middle;resizable=0;points=[];autosize=1;fontColor=#000000;strokeColor=none;" vertex="1" parent="1">
          <mxGeometry x="170" y="370" width="120" height="40" as="geometry" />
        </mxCell>
        <mxCell id="VtA0d31s0QXTXYx8yhvP-13" value="" style="endArrow=classic;html=1;rounded=0;exitX=0;exitY=0;exitDx=0;exitDy=0;entryX=1;entryY=0.25;entryDx=0;entryDy=0;dashed=1;fontColor=#000000;strokeColor=#000066;" edge="1" parent="1" source="VtA0d31s0QXTXYx8yhvP-2" target="VtA0d31s0QXTXYx8yhvP-4">
          <mxGeometry width="50" height="50" relative="1" as="geometry">
            <mxPoint x="350" y="290" as="sourcePoint" />
            <mxPoint x="400" y="240" as="targetPoint" />
          </mxGeometry>
        </mxCell>
        <mxCell id="VtA0d31s0QXTXYx8yhvP-14" value="&lt;div&gt;2) Redirects&lt;/div&gt;&lt;div&gt;to authorization&lt;/div&gt;&lt;div&gt;server + client id&lt;/div&gt;&lt;div&gt;+ redirect url&lt;br&gt;&lt;/div&gt;" style="text;html=1;align=center;verticalAlign=middle;resizable=0;points=[];autosize=1;fontColor=#000000;strokeColor=none;" vertex="1" parent="1">
          <mxGeometry x="290" y="300" width="110" height="70" as="geometry" />
        </mxCell>
        <mxCell id="VtA0d31s0QXTXYx8yhvP-15" value="" style="endArrow=none;html=1;rounded=0;exitX=1;exitY=0;exitDx=0;exitDy=0;entryX=0;entryY=0.75;entryDx=0;entryDy=0;startArrow=classic;startFill=1;endFill=0;dashed=1;fontColor=#000000;strokeColor=#000066;" edge="1" parent="1" source="VtA0d31s0QXTXYx8yhvP-4" target="VtA0d31s0QXTXYx8yhvP-1">
          <mxGeometry width="50" height="50" relative="1" as="geometry">
            <mxPoint x="350" y="290" as="sourcePoint" />
            <mxPoint x="400" y="240" as="targetPoint" />
          </mxGeometry>
        </mxCell>
        <mxCell id="VtA0d31s0QXTXYx8yhvP-16" value="" style="endArrow=classic;html=1;rounded=0;entryX=0;entryY=0;entryDx=0;entryDy=0;endFill=1;fontColor=#000000;strokeColor=#000066;" edge="1" parent="1" target="VtA0d31s0QXTXYx8yhvP-1">
          <mxGeometry width="50" height="50" relative="1" as="geometry">
            <mxPoint x="180" y="190" as="sourcePoint" />
            <mxPoint x="400" y="240" as="targetPoint" />
          </mxGeometry>
        </mxCell>
        <mxCell id="VtA0d31s0QXTXYx8yhvP-17" value="&lt;div&gt;3) Authenticates with&lt;/div&gt;&lt;div&gt;user credentials&lt;br&gt;&lt;/div&gt;&lt;div&gt;+ gives consent&lt;/div&gt;&lt;div&gt;for resource access&lt;br&gt;&lt;/div&gt;" style="text;html=1;align=center;verticalAlign=middle;resizable=0;points=[];autosize=1;fontColor=#000000;strokeColor=none;" vertex="1" parent="1">
          <mxGeometry x="150" y="50" width="130" height="70" as="geometry" />
        </mxCell>
        <mxCell id="VtA0d31s0QXTXYx8yhvP-19" value="&lt;div&gt;4) Authorization&lt;/div&gt;&lt;div&gt;code for client&lt;/div&gt;&lt;div&gt;+ redirect url&lt;/div&gt;" style="text;html=1;align=center;verticalAlign=middle;resizable=0;points=[];autosize=1;fontColor=#000000;strokeColor=none;" vertex="1" parent="1">
          <mxGeometry x="290" y="120" width="100" height="60" as="geometry" />
        </mxCell>
        <mxCell id="VtA0d31s0QXTXYx8yhvP-20" value="" style="curved=1;endArrow=classic;html=1;rounded=0;entryX=0.45;entryY=1.033;entryDx=0;entryDy=0;entryPerimeter=0;exitX=0.5;exitY=1;exitDx=0;exitDy=0;fontColor=#000000;strokeColor=#000066;" edge="1" parent="1" source="VtA0d31s0QXTXYx8yhvP-4" target="VtA0d31s0QXTXYx8yhvP-2">
          <mxGeometry width="50" height="50" relative="1" as="geometry">
            <mxPoint x="125" y="480" as="sourcePoint" />
            <mxPoint x="175" y="430" as="targetPoint" />
            <Array as="points">
              <mxPoint x="140" y="310" />
              <mxPoint x="130" y="370" />
              <mxPoint x="125" y="430" />
              <mxPoint x="290" y="510" />
            </Array>
          </mxGeometry>
        </mxCell>
        <mxCell id="VtA0d31s0QXTXYx8yhvP-21" value="&lt;div&gt;5) sends&lt;/div&gt;&lt;div&gt;authorization code&lt;/div&gt;&lt;div&gt;to redirect url&lt;/div&gt;" style="text;html=1;align=center;verticalAlign=middle;resizable=0;points=[];autosize=1;fontColor=#000000;strokeColor=none;" vertex="1" parent="1">
          <mxGeometry x="70" y="440" width="120" height="60" as="geometry" />
        </mxCell>
        <mxCell id="VtA0d31s0QXTXYx8yhvP-22" value="" style="endArrow=classic;html=1;rounded=0;exitX=0.75;exitY=0;exitDx=0;exitDy=0;entryX=0.75;entryY=1;entryDx=0;entryDy=0;fontColor=#000000;strokeColor=#000066;" edge="1" parent="1" source="VtA0d31s0QXTXYx8yhvP-2" target="VtA0d31s0QXTXYx8yhvP-1">
          <mxGeometry width="50" height="50" relative="1" as="geometry">
            <mxPoint x="350" y="290" as="sourcePoint" />
            <mxPoint x="400" y="240" as="targetPoint" />
          </mxGeometry>
        </mxCell>
        <mxCell id="VtA0d31s0QXTXYx8yhvP-23" value="&lt;div&gt;6) Sends&lt;/div&gt;&lt;div&gt;authorization code&lt;/div&gt;&lt;div&gt;back to token&lt;/div&gt;&lt;div&gt;endpoint&lt;/div&gt;" style="text;html=1;align=center;verticalAlign=middle;resizable=0;points=[];autosize=1;fontColor=#000000;strokeColor=none;" vertex="1" parent="1">
          <mxGeometry x="330" y="210" width="120" height="70" as="geometry" />
        </mxCell>
        <mxCell id="VtA0d31s0QXTXYx8yhvP-24" value="" style="endArrow=classic;html=1;rounded=0;exitX=1;exitY=1;exitDx=0;exitDy=0;entryX=1;entryY=0;entryDx=0;entryDy=0;dashed=1;fontColor=#000000;strokeColor=#000066;" edge="1" parent="1" source="VtA0d31s0QXTXYx8yhvP-1" target="VtA0d31s0QXTXYx8yhvP-2">
          <mxGeometry width="50" height="50" relative="1" as="geometry">
            <mxPoint x="350" y="290" as="sourcePoint" />
            <mxPoint x="400" y="240" as="targetPoint" />
          </mxGeometry>
        </mxCell>
        <mxCell id="VtA0d31s0QXTXYx8yhvP-25" value="7) Issues&lt;div&gt;access token&lt;/div&gt;&lt;div&gt;for client&lt;/div&gt;" style="text;html=1;align=center;verticalAlign=middle;resizable=0;points=[];autosize=1;fontColor=#000000;strokeColor=none;" vertex="1" parent="1">
          <mxGeometry x="470" y="110" width="90" height="60" as="geometry" />
        </mxCell>
        <mxCell id="VtA0d31s0QXTXYx8yhvP-26" value="" style="endArrow=classic;html=1;rounded=0;exitX=1;exitY=0.5;exitDx=0;exitDy=0;entryX=0;entryY=1;entryDx=0;entryDy=0;fontColor=#000000;strokeColor=#000066;" edge="1" parent="1" source="VtA0d31s0QXTXYx8yhvP-2" target="VtA0d31s0QXTXYx8yhvP-3">
          <mxGeometry width="50" height="50" relative="1" as="geometry">
            <mxPoint x="350" y="290" as="sourcePoint" />
            <mxPoint x="400" y="240" as="targetPoint" />
          </mxGeometry>
        </mxCell>
        <mxCell id="VtA0d31s0QXTXYx8yhvP-28" value="&lt;div&gt;8) Sends access token&lt;/div&gt;&lt;div&gt;with request&lt;/div&gt;&lt;div&gt;to access resource&lt;/div&gt;" style="text;html=1;align=center;verticalAlign=middle;resizable=0;points=[];autosize=1;fontColor=#000000;strokeColor=none;" vertex="1" parent="1">
          <mxGeometry x="550" y="330" width="140" height="60" as="geometry" />
        </mxCell>
      </root>
    </mxGraphModel>
  </diagram>
</mxfile>
